<svg width="176" height="93" viewBox="0 0 176 93" fill="none" xmlns="http://www.w3.org/2000/svg">
<circle cx="20.756" cy="72.6492" r="20" transform="rotate(-90.6111 20.756 72.6492)" fill="#62D3A4"/>
<circle cx="20.2121" cy="21.6519" r="20" transform="rotate(-90.6111 20.2121 21.6519)" fill="#62D3A4"/>
<circle cx="65.7533" cy="72.1692" r="20" transform="rotate(-90.6111 65.7533 72.1692)" fill="#62D3A4"/>
<circle cx="65.2092" cy="21.1721" r="20" transform="rotate(-90.6111 65.2092 21.1721)" fill="#62D3A4"/>
<circle cx="110.751" cy="71.6892" r="20" transform="rotate(-90.6111 110.751 71.6892)" fill="#62D3A4"/>
<circle cx="110.207" cy="20.6921" r="20" transform="rotate(-90.6111 110.207 20.6921)" fill="#62D3A4"/>
<circle cx="155.748" cy="71.2092" r="20" transform="rotate(-90.6111 155.748 71.2092)" fill="#62D3A4"/>
<circle cx="155.204" cy="20.2122" r="20" transform="rotate(-90.6111 155.204 20.2122)" fill="#62D3A4"/>
<circle cx="65.704" cy="20.6668" r="16.5" transform="rotate(-90.6111 65.704 20.6668)" fill="white"/>
<circle cx="156.243" cy="70.7039" r="16.5" transform="rotate(-90.6111 156.243 70.7039)" fill="white"/>
</svg>
