<svg width="176" height="93" viewBox="0 0 176 93" fill="none" xmlns="http://www.w3.org/2000/svg">
<circle cx="155.204" cy="20.2122" r="20" transform="rotate(89.3889 155.204 20.2122)" fill="#62D3A4"/>
<circle cx="155.748" cy="71.2095" r="20" transform="rotate(89.3889 155.748 71.2095)" fill="#62D3A4"/>
<circle cx="111.212" cy="72.2122" r="20" transform="rotate(89.3889 111.212 72.2122)" fill="#62D3A4"/>
<circle cx="65.2098" cy="21.1721" r="20" transform="rotate(89.3889 65.2098 21.1721)" fill="#62D3A4"/>
<circle cx="65.7537" cy="72.1692" r="20" transform="rotate(89.3889 65.7537 72.1692)" fill="#62D3A4"/>
<circle cx="20.2122" cy="21.2122" r="20" transform="rotate(89.3889 20.2122 21.2122)" fill="#62D3A4"/>
<circle cx="111.212" cy="21.2122" r="20" transform="rotate(89.3889 111.212 21.2122)" fill="#62D3A4"/>
<circle cx="110.717" cy="21.7175" r="16.5" transform="rotate(89.3889 110.717 21.7175)" fill="white"/>
<circle cx="20.2122" cy="72.2122" r="20" transform="rotate(89.3889 20.2122 72.2122)" fill="#62D3A4"/>
<circle cx="19.7177" cy="72.7175" r="16.5" transform="rotate(89.3889 19.7177 72.7175)" fill="white"/>
</svg>
